<svg width="32" height="32" viewBox="0 0 32 32" fill="none" xmlns="http://www.w3.org/2000/svg">
<rect width="32" height="32" fill="white"/>
<path fill-rule="evenodd" clip-rule="evenodd" d="M28.0937 9.45688H20.5724V7.72403H28.0937V9.45688ZM15.5737 16.5778C16.0599 17.2797 16.295 18.1281 16.295 19.1172C16.295 20.1492 16.0262 21.0731 15.4712 21.8902C15.1187 22.433 14.6787 22.8804 14.1512 23.2546C13.5525 23.6812 12.8487 23.9659 12.0412 24.124C11.2275 24.2855 10.3549 24.3646 9.40619 24.3646H1V7H10.0125C12.2913 7.03372 13.895 7.64732 14.8462 8.85022C15.4175 9.58592 15.7049 10.4726 15.7049 11.5001C15.7049 12.5612 15.4162 13.4119 14.8425 14.0604C14.5212 14.4184 14.0425 14.7531 13.42 15.0448C14.3712 15.3667 15.0887 15.8723 15.5737 16.5778ZM5.30627 13.8419H9.25128C10.0663 13.8419 10.7238 13.7001 11.2275 13.4142C11.735 13.1295 11.985 12.6146 11.985 11.8882C11.985 11.0758 11.6488 10.5424 10.9788 10.2844C10.4051 10.1078 9.67133 10.0124 8.7776 10.0124H5.30627V13.8419ZM12.3663 18.8696C12.3663 17.9665 11.9712 17.3436 11.18 17.0147C10.7375 16.8218 10.1113 16.7218 9.31001 16.7172H5.30627V21.3428H9.24877C10.0576 21.3428 10.6863 21.2382 11.1387 21.0407C11.9562 20.6594 12.3663 19.933 12.3663 18.8696ZM30.8799 16.0455C30.9724 16.6103 31.0074 17.4436 30.9987 18.5151H21.2675C21.3099 19.768 21.7775 20.6373 22.6575 21.1324C23.185 21.4509 23.8299 21.6113 24.5862 21.6113C25.3799 21.6113 26.0237 21.4207 26.5249 21.0429C26.8087 20.8303 27.0424 20.5536 27.2524 20.1783H30.8199C30.7149 20.9162 30.2949 21.6705 29.5162 22.433C28.3174 23.6358 26.6424 24.239 24.4924 24.239C22.7099 24.239 21.1336 23.7358 19.7786 22.7119C18.4262 21.6973 17.7324 20.0364 17.7324 17.7446C17.7324 15.5829 18.3449 13.9244 19.5761 12.7785C20.8061 11.6256 22.3936 11.0549 24.3561 11.0549C25.5237 11.0549 26.5736 11.2502 27.5074 11.636C28.4449 12.0265 29.2099 12.6402 29.8061 13.4758C30.3574 14.2208 30.7137 15.0762 30.8799 16.0455ZM27.3675 16.3674C27.305 15.5039 26.9887 14.8507 26.4324 14.4091C25.8762 13.9593 25.1762 13.7316 24.3575 13.7316C23.4662 13.7316 22.7674 13.9733 22.2725 14.4405C21.7775 14.9147 21.4725 15.555 21.34 16.3651L27.3675 16.3674Z" fill="url(#paint0_linear)"/>
<defs>
<linearGradient id="paint0_linear" x1="16" y1="7" x2="16" y2="24.3646" gradientUnits="userSpaceOnUse">
<stop stop-color="#9906BE"/>
<stop offset="1" stop-color="#106EDB"/>
</linearGradient>
</defs>
</svg>
