<svg width="32" height="32" viewBox="0 0 32 32" fill="none" xmlns="http://www.w3.org/2000/svg">
<rect width="32" height="32" fill="white"/>
<path d="M7.19995 28.0999C9.49995 29.7999 12.2 30.7999 15.2 30.8999V14.3999C14 14.4999 12.8 14.5999 11.7 14.7999C11.7 19.0999 10.6 23.6999 7.19995 28.0999Z" fill="black"/>
<path d="M1.3 18.7C1.9 22 3.7 25 6.1 27.2C9.2 23.2 10.3 19 10.4 15.2C6.1 16.2 2.9 17.8 1.3 18.7ZM11.7 13.4C12.8 13.2 14 13.1 15.2 13V1C13 1.2 10.9 1.8 9 2.8C10 5.1 11.4 8.9 11.7 13.4ZM7.7 3.5C3.7 6.2 1 10.8 1 16C1 16.4 1 16.8 1.1 17.1C3 16.1 6.3 14.5 10.3 13.6C10.1 9.4 8.7 5.7 7.7 3.5ZM16.8 14.4V31C19.5 30.9 22 30 24.1 28.7C20.3 24 19.1 19.1 19.2 14.6C18.3 14.4 17.5 14.4 16.8 14.4ZM23.4 3C22.4 5.1 20.9 8.8 20.6 13.2C24 13.7 27.5 15 30.9 17.4C30.9 17 31 16.5 31 16.1C31 10.4 27.9 5.6 23.4 3ZM22.1 2.3C20.5 1.6 18.7 1.1 16.8 1V12.9C17.6 12.9 18.4 12.9 19.2 13C19.5 8.4 21.1 4.5 22.1 2.3Z" fill="black"/>
<path d="M25.3 27.7998C28 25.5998 30 22.5998 30.7 19.0998C27.3 16.5998 23.9 15.2998 20.6 14.7998C20.5 18.7998 21.7 23.3998 25.3 27.7998Z" fill="black"/>
</svg>
