<svg width="32" height="32" viewBox="0 0 32 32" fill="none" xmlns="http://www.w3.org/2000/svg">
<rect width="32" height="32" fill="white"/>
<path fill-rule="evenodd" clip-rule="evenodd" d="M28.78 1H3.2225C1.99499 1 1 1.96626 1 3.15122V28.855C1 30.0363 1.99499 31 3.2225 31H28.7788C30.0075 31 31 30.0363 31 28.855V3.15122C31 1.96626 30.0075 1 28.78 1ZM10.0975 26.1112H5.56627V12.57H10.0975V26.1112H10.0975ZM7.82873 10.7225H7.79874C6.27749 10.7225 5.29373 9.67498 5.29373 8.37996C5.29373 7.04869 6.30748 6.03745 7.85747 6.03745C9.40871 6.03745 10.3625 7.04869 10.3912 8.37996C10.3925 9.67498 9.40996 10.7225 7.82873 10.7225ZM26.4337 26.1112H21.9113V18.8687C21.9113 17.0487 21.2463 15.7975 19.6063 15.7975C18.3475 15.7975 17.6113 16.64 17.2875 17.4575C17.1688 17.735 17.1375 18.1412 17.1375 18.5487V26.1112H12.6037C12.6037 26.1112 12.6612 13.8375 12.6037 12.5699H17.1375V14.4899C17.7325 13.5687 18.81 12.2499 21.2162 12.2499C24.2012 12.2499 26.4337 14.1862 26.4337 18.3462V26.1112ZM17.11 14.5641C17.1164 14.5405 17.1271 14.517 17.1549 14.4913V14.5641H17.11Z" fill="url(#paint0_linear)"/>
<defs>
<linearGradient id="paint0_linear" x1="16" y1="1" x2="16" y2="31" gradientUnits="userSpaceOnUse">
<stop stop-color="#9906BE"/>
<stop offset="1" stop-color="#106EDB"/>
</linearGradient>
</defs>
</svg>
