<svg width="32" height="32" viewBox="0 0 32 32" fill="none" xmlns="http://www.w3.org/2000/svg">
<rect width="32" height="32" fill="white"/>
<path d="M29.3333 1H2.66667C1.74619 1 1 1.74619 1 2.66667V29.3333C1 30.2538 1.74619 31 2.66667 31H29.3333C30.2538 31 31 30.2538 31 29.3333V2.66667C31 1.74619 30.2538 1 29.3333 1Z" fill="url(#paint0_linear)"/>
<path fill-rule="evenodd" clip-rule="evenodd" d="M25.5833 10.7721H24.825C24.5437 10.7721 24.1458 11.1846 24.1458 11.4483V21.02C24.1458 21.2842 24.5437 21.645 24.825 21.645H25.5833V23.9167H18.7154V21.6446H20.1529V11.5833H20.082L16.7258 23.9167H14.127L10.8125 11.5833H10.7287V21.6446H12.1662V23.9167H6.41663V21.6446H7.15288C7.45621 21.6446 7.85413 21.2842 7.85413 21.0196V11.4487C7.85413 11.1846 7.45621 10.7721 7.15288 10.7721H6.41663V8.5H13.6066L15.9675 17.4254H16.0325L18.415 8.5H25.5833V10.7721Z" fill="white"/>
<defs>
<linearGradient id="paint0_linear" x1="16" y1="1" x2="16" y2="31" gradientUnits="userSpaceOnUse">
<stop stop-color="#9906BE"/>
<stop offset="1" stop-color="#106EDB"/>
</linearGradient>
</defs>
</svg>
