<svg width="32" height="32" viewBox="0 0 32 32" fill="none" xmlns="http://www.w3.org/2000/svg">
<path fill-rule="evenodd" clip-rule="evenodd" d="M1.77778 0H30.2222C31.2041 0 32 0.795938 32 1.77778V30.2222C32 31.2041 31.2041 32 30.2222 32H1.77778C0.795938 32 0 31.2041 0 30.2222V1.77778C0 0.795938 0.795938 0 1.77778 0ZM25.4129 10.4236H26.2218V8H18.5756L16.0342 17.5204H15.9649L13.4467 8H5.77734V10.4236H6.56268C6.88623 10.4236 7.31068 10.8636 7.31068 11.1453V21.3542C7.31068 21.6364 6.88623 22.0209 6.56268 22.0209H5.77734V24.4444H11.9102V22.0209H10.3769V11.2889H10.4662L14.0018 24.4444H16.7738L20.3538 11.2889H20.4293V22.0209H18.896V24.4444H26.2218V22.0213H25.4129C25.1129 22.0213 24.6885 21.6364 24.6885 21.3547V11.1449C24.6885 10.8636 25.1129 10.4236 25.4129 10.4236Z" fill="#7D3041"/>
</svg>
