<svg width="32" height="16" viewBox="0 0 32 16" fill="none" xmlns="http://www.w3.org/2000/svg">
<path fill-rule="evenodd" clip-rule="evenodd" d="M28.8999 2.26382H20.8773V0.667137H28.8999V2.26382ZM15.5453 8.82511C16.0639 9.47193 16.3146 10.2537 16.3146 11.165C16.3146 12.1159 16.0279 12.9672 15.4359 13.7201C15.06 14.2202 14.5906 14.6325 14.0279 14.9773C13.3893 15.3703 12.6386 15.6327 11.7773 15.7783C10.9093 15.9272 9.9786 16 8.9666 16H0V0H9.61334C12.044 0.0310671 13.7546 0.596456 14.7693 1.70482C15.3786 2.38271 15.6853 3.19975 15.6853 4.14644C15.6853 5.12414 15.3773 5.90802 14.7653 6.50561C14.4227 6.83541 13.912 7.14383 13.248 7.41263C14.2626 7.70922 15.028 8.17506 15.5453 8.82511ZM4.59335 6.30426H8.80137C9.67069 6.30426 10.372 6.1736 10.9094 5.91017C11.4507 5.64782 11.7174 5.17343 11.7174 4.50409C11.7174 3.75552 11.3587 3.26404 10.6441 3.0263C10.0321 2.86355 9.24942 2.77572 8.29611 2.77572H4.59335V6.30426ZM12.124 10.9369C12.124 10.1048 11.7027 9.53078 10.8587 9.22774C10.3867 9.04999 9.71868 8.95787 8.86401 8.95362H4.59335V13.2157H8.79869C9.66139 13.2157 10.332 13.1194 10.8147 12.9373C11.6867 12.586 12.124 11.9167 12.124 10.9369ZM31.8719 8.33464C31.9706 8.8551 32.0079 9.62291 31.9986 10.6102H21.6186C21.6639 11.7647 22.1626 12.5656 23.1013 13.0219C23.664 13.3153 24.3519 13.4631 25.1586 13.4631C26.0053 13.4631 26.6919 13.2875 27.2266 12.9394C27.5293 12.7434 27.7786 12.4886 28.0026 12.1427H31.8079C31.6959 12.8227 31.2479 13.5177 30.4172 14.2202C29.1386 15.3286 27.3519 15.8843 25.0586 15.8843C23.1572 15.8843 21.4759 15.4206 20.0306 14.4772C18.5879 13.5423 17.8479 12.012 17.8479 9.90025C17.8479 7.90841 18.5012 6.38026 19.8145 5.32441C21.1265 4.26211 22.8199 3.73628 24.9132 3.73628C26.1586 3.73628 27.2785 3.91618 28.2745 4.27173C29.2745 4.63153 30.0905 5.19697 30.7265 5.96693C31.3146 6.65336 31.6946 7.44154 31.8719 8.33464ZM28.1253 8.63129C28.0586 7.83563 27.7213 7.2338 27.1279 6.82687C26.5346 6.41246 25.788 6.20257 24.9146 6.20257C23.964 6.20257 23.2186 6.4253 22.6907 6.85578C22.1626 7.29271 21.8373 7.88277 21.696 8.62914L28.1253 8.63129Z" fill="#372126"/>
</svg>
