<svg width="32" height="32" viewBox="0 0 32 32" fill="none" xmlns="http://www.w3.org/2000/svg">
<path d="M6.61328 28.9068C9.06661 30.7201 11.9466 31.7868 15.1466 31.8935V14.2935C13.8666 14.4001 12.5866 14.5068 11.4133 14.7201C11.4133 19.3068 10.2399 24.2135 6.61328 28.9068Z" fill="#372126"/>
<path d="M0.32 18.88C0.96 22.4 2.88 25.6 5.44 27.9467C8.74667 23.68 9.92 19.2 10.0267 15.1467C5.44 16.2133 2.02667 17.92 0.32 18.88ZM11.4133 13.2267C12.5867 13.0133 13.8667 12.9067 15.1467 12.8V0C12.8 0.213333 10.56 0.853333 8.53333 1.92C9.6 4.37333 11.0933 8.42667 11.4133 13.2267ZM7.14667 2.66667C2.88 5.54667 0 10.4533 0 16C0 16.4267 0 16.8533 0.106667 17.1733C2.13333 16.1067 5.65333 14.4 9.92 13.44C9.70667 8.96 8.21333 5.01333 7.14667 2.66667ZM16.8533 14.2933V32C19.7333 31.8933 22.4 30.9333 24.64 29.5467C20.5867 24.5333 19.3067 19.3067 19.4133 14.5067C18.4533 14.2933 17.6 14.2933 16.8533 14.2933ZM23.8933 2.13333C22.8267 4.37333 21.2267 8.32 20.9067 13.0133C24.5333 13.5467 28.2667 14.9333 31.8933 17.4933C31.8933 17.0667 32 16.5333 32 16.1067C32 10.0267 28.6933 4.90667 23.8933 2.13333ZM22.5067 1.38667C20.8 0.64 18.88 0.106667 16.8533 0V12.6933C17.7067 12.6933 18.56 12.6933 19.4133 12.8C19.7333 7.89333 21.44 3.73333 22.5067 1.38667Z" fill="#372126"/>
<path d="M25.9198 28.5869C28.7998 26.2402 30.9331 23.0402 31.6798 19.3069C28.0531 16.6402 24.4265 15.2535 20.9065 14.7202C20.7998 18.9869 22.0798 23.8935 25.9198 28.5869Z" fill="#372126"/>
</svg>
