<svg width="32" height="32" viewBox="0 0 32 32" fill="none" xmlns="http://www.w3.org/2000/svg">
<path fill-rule="evenodd" clip-rule="evenodd" d="M29.6319 0H2.37066C1.06132 0 0 1.03067 0 2.29464V29.712C0 30.972 1.06132 32 2.37066 32H29.6307C30.9414 32 32 30.972 32 29.712V2.29464C32 1.03067 30.9413 0 29.6319 0ZM9.70396 26.7853H4.87069V12.3413H9.70403V26.7853H9.70396ZM7.28398 10.3706H7.25199C5.62932 10.3706 4.57998 9.25331 4.57998 7.87196C4.57998 6.45193 5.66131 5.37327 7.31463 5.37327C8.96929 5.37327 9.98664 6.45193 10.0173 7.87196C10.0186 9.25331 8.97063 10.3706 7.28398 10.3706ZM27.1293 26.7853H22.3053V19.06C22.3053 17.1186 21.596 15.784 19.8467 15.784C18.504 15.784 17.7187 16.6826 17.3734 17.5546C17.2467 17.8506 17.2133 18.284 17.2133 18.7186V26.7853H12.3773C12.3773 26.7853 12.4386 13.6933 12.3773 12.3412H17.2133V14.3893C17.848 13.4066 18.9974 11.9999 21.564 11.9999C24.7479 11.9999 27.1293 14.0653 27.1293 18.5026V26.7853ZM17.184 14.4684C17.1908 14.4432 17.2022 14.4181 17.2319 14.3907V14.4684H17.184Z" fill="#372126"/>
</svg>
