<svg width="32" height="32" viewBox="0 0 32 32" fill="none" xmlns="http://www.w3.org/2000/svg">
<path d="M30.2222 0H1.77778C0.795938 0 0 0.795938 0 1.77778V30.2222C0 31.2041 0.795938 32 1.77778 32H30.2222C31.2041 32 32 31.2041 32 30.2222V1.77778C32 0.795938 31.2041 0 30.2222 0Z" fill="#372126"/>
<path fill-rule="evenodd" clip-rule="evenodd" d="M26.2218 10.4236H25.4129C25.1129 10.4236 24.6885 10.8636 24.6885 11.1449V21.3547C24.6885 21.6364 25.1129 22.0213 25.4129 22.0213H26.2218V24.4444H18.896V22.0209H20.4293V11.2889H20.3538L16.7738 24.4444H14.0018L10.4662 11.2889H10.3769V22.0209H11.9102V24.4444H5.77734V22.0209H6.56268C6.88623 22.0209 7.31068 21.6364 7.31068 21.3542V11.1453C7.31068 10.8636 6.88623 10.4236 6.56268 10.4236H5.77734V8H13.4467L15.9649 17.5204H16.0342L18.5756 8H26.2218V10.4236Z" fill="white"/>
</svg>
