<svg width="38" height="34" viewBox="0 0 38 34" fill="none" xmlns="http://www.w3.org/2000/svg">
<path fill-rule="evenodd" clip-rule="evenodd" d="M31.8999 11.2638H23.8773V9.66714H31.8999V11.2638ZM18.5453 17.8251C19.0639 18.4719 19.3146 19.2537 19.3146 20.165C19.3146 21.1159 19.0279 21.9672 18.4359 22.7201C18.06 23.2202 17.5906 23.6325 17.0279 23.9773C16.3893 24.3703 15.6386 24.6327 14.7773 24.7783C13.9093 24.9272 12.9786 25 11.9666 25H3V9H12.6133C15.044 9.03107 16.7546 9.59646 17.7693 10.7048C18.3786 11.3827 18.6853 12.1998 18.6853 13.1464C18.6853 14.1241 18.3773 14.908 17.7653 15.5056C17.4227 15.8354 16.912 16.1438 16.248 16.4126C17.2626 16.7092 18.028 17.1751 18.5453 17.8251ZM7.59335 15.3043H11.8014C12.6707 15.3043 13.372 15.1736 13.9094 14.9102C14.4507 14.6478 14.7174 14.1734 14.7174 13.5041C14.7174 12.7555 14.3587 12.264 13.6441 12.0263C13.0321 11.8636 12.2494 11.7757 11.2961 11.7757H7.59335V15.3043ZM15.124 19.9369C15.124 19.1048 14.7027 18.5308 13.8587 18.2277C13.3867 18.05 12.7187 17.9579 11.864 17.9536H7.59335V22.2157H11.7987C12.6614 22.2157 13.332 22.1194 13.8147 21.9373C14.6867 21.586 15.124 20.9167 15.124 19.9369ZM34.8719 17.3346C34.9706 17.8551 35.0079 18.6229 34.9986 19.6102H24.6186C24.6639 20.7647 25.1626 21.5656 26.1013 22.0219C26.664 22.3153 27.3519 22.4631 28.1586 22.4631C29.0053 22.4631 29.6919 22.2875 30.2266 21.9394C30.5293 21.7434 30.7786 21.4886 31.0026 21.1427H34.8079C34.6959 21.8227 34.2479 22.5177 33.4172 23.2202C32.1386 24.3286 30.3519 24.8843 28.0586 24.8843C26.1572 24.8843 24.4759 24.4206 23.0306 23.4772C21.5879 22.5423 20.8479 21.012 20.8479 18.9003C20.8479 16.9084 21.5012 15.3803 22.8145 14.3244C24.1265 13.2621 25.8199 12.7363 27.9132 12.7363C29.1586 12.7363 30.2785 12.9162 31.2745 13.2717C32.2745 13.6315 33.0905 14.197 33.7265 14.9669C34.3146 15.6534 34.6946 16.4415 34.8719 17.3346ZM31.1253 17.6313C31.0586 16.8356 30.7213 16.2338 30.1279 15.8269C29.5346 15.4125 28.788 15.2026 27.9146 15.2026C26.964 15.2026 26.2186 15.4253 25.6907 15.8558C25.1626 16.2927 24.8373 16.8828 24.696 17.6291L31.1253 17.6313Z" fill="#7d3041"/>
</svg>
