<svg width="24" height="24" viewBox="0 0 24 24" fill="none" xmlns="http://www.w3.org/2000/svg">
<g clip-path="url(#clip0)">
<path d="M9.87992 16L15.6133 10.28C15.8643 10.0289 16.0054 9.68836 16.0054 9.3333C16.0054 8.97823 15.8643 8.6377 15.6133 8.38663C15.3622 8.13556 15.0217 7.99451 14.6666 7.99451C14.3115 7.99451 13.971 8.13556 13.7199 8.38663L7.99992 14.12L2.27992 8.38663C2.02885 8.13556 1.68832 7.99451 1.33325 7.99451C0.978183 7.99451 0.637657 8.13556 0.386585 8.38663C0.135514 8.6377 -0.00553703 8.97823 -0.00553703 9.3333C-0.00553704 9.68836 0.135514 10.0289 0.386585 10.28L6.11992 16L0.386585 21.72C0.261614 21.8439 0.162422 21.9914 0.0947304 22.1539C0.0270388 22.3163 -0.0078125 22.4906 -0.0078125 22.6666C-0.0078125 22.8426 0.0270388 23.0169 0.0947304 23.1794C0.162422 23.3419 0.261614 23.4893 0.386585 23.6133C0.510536 23.7383 0.658004 23.8375 0.820483 23.9052C0.982962 23.9728 1.15724 24.0077 1.33325 24.0077C1.50927 24.0077 1.68354 23.9728 1.84602 23.9052C2.0085 23.8375 2.15597 23.7383 2.27992 23.6133L7.99992 17.88L13.7199 23.6133C13.8439 23.7383 13.9913 23.8375 14.1538 23.9052C14.3163 23.9728 14.4906 24.0077 14.6666 24.0077C14.8426 24.0077 15.0169 23.9728 15.1794 23.9052C15.3418 23.8375 15.4893 23.7383 15.6133 23.6133C15.7382 23.4893 15.8374 23.3419 15.9051 23.1794C15.9728 23.0169 16.0077 22.8426 16.0077 22.6666C16.0077 22.4906 15.9728 22.3163 15.9051 22.1539C15.8374 21.9914 15.7382 21.8439 15.6133 21.72L9.87992 16Z" fill="#272727"/>
</g>
<defs>
<clipPath id="clip0">
<rect width="24" height="24" fill="white"/>
</clipPath>
</defs>
</svg>
