<svg width="49" height="44" viewBox="0 0 49 44" fill="none" xmlns="http://www.w3.org/2000/svg">
<path d="M40.3692 0H7.7459C3.46796 0 0 3.17136 0 7.08342V36.9166C0 40.8287 3.46796 44 7.7459 44H40.3692C44.6472 44 48.1151 40.8287 48.1151 36.9166V7.08342C48.1151 3.17136 44.6472 0 40.3692 0Z" fill="url(#paint0_linear)"/>
<path d="M31.6548 32.4212L29.2301 30.2038C29.0486 30.0382 28.9047 29.8415 28.8064 29.6249C28.7082 29.4083 28.6576 29.1762 28.6576 28.9417C28.6576 28.7073 28.7082 28.4751 28.8064 28.2585C28.9047 28.042 29.0486 27.8452 29.2301 27.6796L34.1872 23.158C34.2284 23.1204 34.2695 23.0799 34.3075 23.0393C34.6721 22.6357 34.8568 22.1211 34.8245 21.5984C34.7922 21.0757 34.5454 20.5834 34.1334 20.2199L22.1584 9.26329C21.1533 8.34091 20.5889 7.0918 20.5889 5.7896C20.5889 4.48741 21.1533 3.2383 22.1584 2.31592L37.932 16.7404C39.3228 17.9902 40.1374 19.6795 40.2087 21.4615C40.2799 23.2434 39.6023 24.9827 38.315 26.322C38.2137 26.4262 38.1029 26.5304 37.9984 26.6375L31.6548 32.4212Z" fill="white"/>
<path d="M26.1913 41.2644C24.7099 39.9762 11.6745 28.6173 9.37952 25.8615C8.63949 24.9644 8.18585 23.8972 8.06901 22.7786C7.95532 21.7377 8.09914 20.6868 8.48983 19.7037C8.88052 18.7205 9.50807 17.8304 10.326 17.0991L13.9061 20.3731C13.6261 20.6185 13.409 20.9177 13.2705 21.249C13.132 21.5804 13.0756 21.9357 13.1053 22.2894C13.1301 22.5689 13.2398 22.8366 13.4218 23.0623C14.669 24.5589 20.7499 30.0502 26.0457 34.7194C27.0111 35.5713 27.5691 36.7376 27.5982 37.9641C27.6272 39.1906 27.125 40.378 26.2008 41.2673L26.1913 41.2644Z" fill="white"/>
<path d="M5.47657 25.5607L3.26074 23.5344L17.3471 10.6528L19.5344 12.6531C19.7179 12.8204 19.8635 13.0191 19.9628 13.2379C20.0621 13.4567 20.1132 13.6913 20.1132 13.9282C20.1132 14.1651 20.0621 14.3997 19.9628 14.6185C19.8635 14.8374 19.7179 15.0361 19.5344 15.2034L8.23053 25.5607C8.04974 25.7261 7.83507 25.8574 7.5988 25.9469C7.36254 26.0364 7.1093 26.0825 6.85355 26.0825C6.5978 26.0825 6.34456 26.0364 6.10829 25.9469C5.87202 25.8574 5.65736 25.7261 5.47657 25.5607Z" fill="white"/>
<defs>
<linearGradient id="paint0_linear" x1="24.0576" y1="44" x2="24.0576" y2="0" gradientUnits="userSpaceOnUse">
<stop stop-color="#7D3041"/>
<stop offset="1" stop-color="#CE0A42"/>
</linearGradient>
</defs>
</svg>
